# xmcd
#
# Track frame offsets: 
#        182
#        9970
#        23280
#        35152
#        46840
#        58362
#        73032
#        87767
#        98760
#        116625
#        125905
#        137747
#        150105
#        160502
#        174350
#        187507
#        199890
#        211570
#        229177
#        238207
#        248637
#        261392
#        271435
#        281590
#        293027
#        303872
#        316042
#
# Disc length: 4366 seconds
#
# Revision: 6
# Processed by: cddbd v1.5.2PL0 Copyright (c) Steve Scherf et al.
# Submitted via: ExactAudioCopy v0.99pb3
#
DISCID=66110c1b
DTITLE=Various Artist - This Is Soul
DYEAR=1900
DGENRE=Soul
TTITLE0=The Drifters - Save The Last Dance For Me
TTITLE1=Eddie Floyd - Knock On Wood
TTITLE2=Sam and Dave - Hold On I'm Coming
TTITLE3=Brook Benton - Kiddo
TTITLE4=The Tams - Hey Girl Don't Bother Me
TTITLE5=Percy Sledge - Warm And Tender Love
TTITLE6=George McCray - Rock Your Baby
TTITLE7=Brook Benton - It's Just A Matter
TTITLE8=Brook Benton - Rainy Night In Georgia
TTITLE9=Gladys Knight - Every Beat Of My Heart
TTITLE10=The Drifters - Under The Boardwalk
TTITLE11=Archie Bell and The Dells - Tighten Up
TTITLE12=Soul Survivors - Expressway To Your Heart
TTITLE13=The Moments - Girls
TTITLE14=Percy Sledge - When A Man Loves A Woman
TTITLE15=Wilbert Harrison - Lets Stick Together
TTITLE16=The Tams - What Kind Of Fool
TTITLE17=James Brown - Please, Please, Please
TTITLE18=The Drifters - Saturday Night At The Movies
TTITLE19=Sam and Dave - Soul Sister Brown Sugar
TTITLE20=Dobie Grey - The In Crowd
TTITLE21=Gladys Knight - Operator
TTITLE22=The Drifters - There Goes My Baby
TTITLE23=Sam and Dave - Soul Man
TTITLE24=James Brown - Papa's Got A Brand New Bag
TTITLE25=Sam and Dave - I Thank You
TTITLE26=Jerry Butler - Make It Easy On Yourself
EXTD=
EXTT0=
EXTT1=
EXTT2=
EXTT3=
EXTT4=
EXTT5=
EXTT6=
EXTT7=
EXTT8=
EXTT9=
EXTT10=
EXTT11=
EXTT12=
EXTT13=
EXTT14=
EXTT15=
EXTT16=
EXTT17=
EXTT18=
EXTT19=
EXTT20=
EXTT21=
EXTT22=
EXTT23=
EXTT24=
EXTT25=
EXTT26=
PLAYORDER=
